<?xml version="1.0" encoding="utf-8"?>
<!-- Generator: Adobe Illustrator 29.0.1, SVG Export Plug-In . SVG Version: 9.03 Build 54978)  -->
<svg version="1.1" xmlns="http://www.w3.org/2000/svg" xmlns:xlink="http://www.w3.org/1999/xlink" x="0px" y="0px"
	 viewBox="0 0 1024 1024" style="enable-background:new 0 0 1024 1024;" xml:space="preserve">
<g>
</g>
<g id="图层_7">
	<g>
		<path d="M769.2597656,741.9658203c-21.5625,33.4589844-51.3037109,60.2255859-88.4804688,80.3007812
			c-16.3574219,8.1787109-31.9716797,12.640625-45.3554688,12.640625c-21.5625,0-35.6894531-20.8193359-42.3808594-61.7138672
			h6.6914062c14.8710938,0,32.7158203-7.4345703,54.2783203-20.8183594
			c50.5595703-32.7148438,76.5830078-77.3271484,76.5830078-132.3486328c0-39.4072266-19.3320312-71.3789062-57.2519531-95.171875
			c-23.7929688-14.1269531-52.7900391-21.5625-87.7363281-21.5625c-56.5078125,0-113.0166016,13.3837891-171.0117188,38.6640625
			l4.4609375,196.2919922c0,16.3574219-2.9736328,28.2539062-7.4345703,35.6894531
			c-5.9482422,8.921875-17.1015625,13.3837891-33.4589844,13.3837891c-35.6894531,0-69.8925781-10.4101562-101.1201172-29.7412109
			c-35.6894531-23.0498047-53.5341797-50.5605469-53.5341797-84.7626953
			c0-63.9433594,42.3808594-119.7080078,127.1435547-166.5507812l-2.9746094-126.4003906
			c-25.2792969,2.2304688-45.3554688,2.9741211-59.4824219,2.9741211c-14.8701172,0-27.5107422-4.4609375-37.9199219-14.1269531
			c-10.4091797-8.9223633-14.8701172-21.5625-14.8701172-36.4331055c0-7.4350586,3.7177734-11.152832,11.8964844-11.152832
			c3.7177734,0,9.6660156,0.7436523,17.8447266,2.2304688c7.4345703,1.4873047,13.3828125,1.4873047,17.8447266,1.4873047
			c16.3574219,0,37.9199219-1.4873047,63.2001953-5.2045898l-2.2314453-98.8896484
			c0-2.9741211-2.2304688-10.409668-6.6914062-23.7929688c0.7431641-11.8964844,8.9228516-17.8447266,24.5361328-17.8447266
			c14.8710938,0,28.9980469,4.4609375,42.3818359,11.8964844c11.1523438,7.4350586,17.1005859,14.1269531,17.1005859,21.5625
			c0,4.4609375-1.4863281,10.4091797-2.9736328,16.3574219c-2.9746094,8.9223633-4.4609375,14.8706055-4.4609375,17.1010742
			c-0.7441406,2.230957-0.7441406,11.152832-0.7441406,26.0239258v37.1762695
			c27.5107422-3.7177734,48.3300781-5.9482422,63.2001953-5.9482422c10.4091797,0,19.3320312,3.7177734,26.7675781,9.6660156
			c7.4345703,6.6918945,11.8964844,14.8706055,11.8964844,24.5366211c0,20.8183594-9.6660156,31.2280273-28.2548828,31.2280273
			c-3.7177734,0-8.921875,0-15.6132812-0.7436523c-7.4355469,0-12.640625-0.7431641-15.6142578-0.7431641
			c-11.8964844,0-26.7675781,1.4868164-43.125,2.9736328c0,44.6123047,0,82.5322266,0.7431641,112.2734375
			c58.7392578-22.3061523,115.9912109-34.2026367,171.0117188-34.2026367
			c59.4824219,0,109.2998047,14.8706055,149.4501953,44.6118164
			c44.6113281,32.7158203,66.9179688,78.0703125,66.9179688,135.3222656
			C800.4882812,670.5869141,790.078125,708.5068359,769.2597656,741.9658203z M352.1396484,572.4404297
			c-48.3300781,28.9980469-72.1230469,63.2001953-72.1230469,103.3505859c0,14.1269531,7.4355469,26.0234375,23.0498047,36.4335938
			c13.3837891,9.6660156,27.5107422,14.1269531,42.3808594,14.1269531c5.2050781,0,8.1787109-3.7177734,8.1787109-11.8964844
			L352.1396484,572.4404297z M761.8242188,405.8896484c-8.1787109,6.6918945-15.6142578,9.6660156-21.5625,9.6660156
			c-2.9736328,0-7.4355469-2.9741211-12.6396484-9.6660156c-17.8447266-20.8183594-48.3300781-39.4067383-89.9677734-55.7646484
			c-8.1787109-2.9741211-11.8964844-7.4350586-11.8964844-14.8706055c0-8.9223633,2.9746094-17.8447266,8.9228516-25.2797852
			c5.9482422-7.4355469,13.3837891-11.1533203,23.7929688-11.1533203c19.3320312,0,43.125,12.6401367,72.8662109,37.1767578
			c27.5097656,23.7929688,41.6376953,40.1503906,41.6376953,49.0732422
			C772.9775391,392.5063477,769.2597656,399.9414062,761.8242188,405.8896484z"/>
	</g>
</g>
</svg>
